<?xml version="1.0" encoding="utf-8"?>
<svg viewBox="0 2 1920 320" xmlns="http://www.w3.org/2000/svg">
  <path d="M0 316L35.5 315.8C71 315.7 142 315.3 213.2 309.3C284.3 303.3 355.7 291.7 426.8 284C498 276.3 569 272.7 640 273.2C711 273.7 782 278.3 853.2 285.5C924.3 292.7 995.7 302.3 1066.8 308.7C1138 315 1209 318 1280 311.3C1351 304.7 1422 288.3 1493.2 280.8C1564.3 273.3 1635.7 274.7 1706.8 278.8C1778 283 1849 290 1884.5 293.5L1920 297L1920 0L1884.5 0C1849 0 1778 0 1706.8 0C1635.7 0 1564.3 0 1493.2 0C1422 0 1351 0 1280 0C1209 0 1138 0 1066.8 0C995.7 0 924.3 0 853.2 0C782 0 711 0 640 0C569 0 498 0 426.8 0C355.7 0 284.3 0 213.2 0C142 0 71 0 35.5 0L0 0Z" fill="#e000ff" style=""/>
  <path d="M0 233L35.5 231.3C71 229.7 142 226.3 213.2 234.3C284.3 242.3 355.7 261.7 426.8 268.5C498 275.3 569 269.7 640 266.5C711 263.3 782 262.7 853.2 255.8C924.3 249 995.7 236 1066.8 229.3C1138 222.7 1209 222.3 1280 227.7C1351 233 1422 244 1493.2 245C1564.3 246 1635.7 237 1706.8 232C1778 227 1849 226 1884.5 225.5L1920 225L1920 0L1884.5 0C1849 0 1778 0 1706.8 0C1635.7 0 1564.3 0 1493.2 0C1422 0 1351 0 1280 0C1209 0 1138 0 1066.8 0C995.7 0 924.3 0 853.2 0C782 0 711 0 640 0C569 0 498 0 426.8 0C355.7 0 284.3 0 213.2 0C142 0 71 0 35.5 0L0 0Z" fill="#cc05fe"/>
  <path d="M0 244L35.5 239.8C71 235.7 142 227.3 213.2 228C284.3 228.7 355.7 238.3 426.8 242C498 245.7 569 243.3 640 237.8C711 232.3 782 223.7 853.2 215.2C924.3 206.7 995.7 198.3 1066.8 194.2C1138 190 1209 190 1280 189.8C1351 189.7 1422 189.3 1493.2 191.7C1564.3 194 1635.7 199 1706.8 203.8C1778 208.7 1849 213.3 1884.5 215.7L1920 218L1920 0L1884.5 0C1849 0 1778 0 1706.8 0C1635.7 0 1564.3 0 1493.2 0C1422 0 1351 0 1280 0C1209 0 1138 0 1066.8 0C995.7 0 924.3 0 853.2 0C782 0 711 0 640 0C569 0 498 0 426.8 0C355.7 0 284.3 0 213.2 0C142 0 71 0 35.5 0L0 0Z" fill="#b80bfd"/>
  <path d="M0 197L35.5 190.8C71 184.7 142 172.3 213.2 171.5C284.3 170.7 355.7 181.3 426.8 183.5C498 185.7 569 179.3 640 175.5C711 171.7 782 170.3 853.2 173C924.3 175.7 995.7 182.3 1066.8 187.8C1138 193.3 1209 197.7 1280 201.8C1351 206 1422 210 1493.2 209C1564.3 208 1635.7 202 1706.8 192.5C1778 183 1849 170 1884.5 163.5L1920 157L1920 0L1884.5 0C1849 0 1778 0 1706.8 0C1635.7 0 1564.3 0 1493.2 0C1422 0 1351 0 1280 0C1209 0 1138 0 1066.8 0C995.7 0 924.3 0 853.2 0C782 0 711 0 640 0C569 0 498 0 426.8 0C355.7 0 284.3 0 213.2 0C142 0 71 0 35.5 0L0 0Z" fill="#a212fb"/>
  <path d="M0 178L35.5 168C71 158 142 138 213.2 127.3C284.3 116.7 355.7 115.3 426.8 124.5C498 133.7 569 153.3 640 160.2C711 167 782 161 853.2 155.7C924.3 150.3 995.7 145.7 1066.8 139.3C1138 133 1209 125 1280 131.2C1351 137.3 1422 157.7 1493.2 158C1564.3 158.3 1635.7 138.7 1706.8 138.3C1778 138 1849 157 1884.5 166.5L1920 176L1920 0L1884.5 0C1849 0 1778 0 1706.8 0C1635.7 0 1564.3 0 1493.2 0C1422 0 1351 0 1280 0C1209 0 1138 0 1066.8 0C995.7 0 924.3 0 853.2 0C782 0 711 0 640 0C569 0 498 0 426.8 0C355.7 0 284.3 0 213.2 0C142 0 71 0 35.5 0L0 0Z" fill="#8a18f9"/>
  <path d="M0 118L35.5 114C71 110 142 102 213.2 95.2C284.3 88.3 355.7 82.7 426.8 85C498 87.3 569 97.7 640 108.5C711 119.3 782 130.7 853.2 128.3C924.3 126 995.7 110 1066.8 106C1138 102 1209 110 1280 110.3C1351 110.7 1422 103.3 1493.2 96.7C1564.3 90 1635.7 84 1706.8 90.8C1778 97.7 1849 117.3 1884.5 127.2L1920 137L1920 0L1884.5 0C1849 0 1778 0 1706.8 0C1635.7 0 1564.3 0 1493.2 0C1422 0 1351 0 1280 0C1209 0 1138 0 1066.8 0C995.7 0 924.3 0 853.2 0C782 0 711 0 640 0C569 0 498 0 426.8 0C355.7 0 284.3 0 213.2 0C142 0 71 0 35.5 0L0 0Z" fill="#6f1df7"/>
  <path d="M0 59L35.5 56.5C71 54 142 49 213.2 47.8C284.3 46.7 355.7 49.3 426.8 51.7C498 54 569 56 640 56.5C711 57 782 56 853.2 63.7C924.3 71.3 995.7 87.7 1066.8 93.5C1138 99.3 1209 94.7 1280 95C1351 95.3 1422 100.7 1493.2 98.3C1564.3 96 1635.7 86 1706.8 82.7C1778 79.3 1849 82.7 1884.5 84.3L1920 86L1920 0L1884.5 0C1849 0 1778 0 1706.8 0C1635.7 0 1564.3 0 1493.2 0C1422 0 1351 0 1280 0C1209 0 1138 0 1066.8 0C995.7 0 924.3 0 853.2 0C782 0 711 0 640 0C569 0 498 0 426.8 0C355.7 0 284.3 0 213.2 0C142 0 71 0 35.5 0L0 0Z" fill="#4d21f4"/>
  <path d="M0 4L35.5 12.3C71 20.7 142 37.3 213.2 44.2C284.3 51 355.7 48 426.8 45.2C498 42.3 569 39.7 640 39.5C711 39.3 782 41.7 853.2 47.3C924.3 53 995.7 62 1066.8 65.2C1138 68.3 1209 65.7 1280 61C1351 56.3 1422 49.7 1493.2 44C1564.3 38.3 1635.7 33.7 1706.8 32.8C1778 32 1849 35 1884.5 36.5L1920 38L1920 0L1884.5 0C1849 0 1778 0 1706.8 0C1635.7 0 1564.3 0 1493.2 0C1422 0 1351 0 1280 0C1209 0 1138 0 1066.8 0C995.7 0 924.3 0 853.2 0C782 0 711 0 640 0C569 0 498 0 426.8 0C355.7 0 284.3 0 213.2 0C142 0 71 0 35.5 0L0 0Z" fill="#0024f1" style=""/>
</svg>